<svg width="960" height="520" viewBox="0 0 960 520" fill="none" xmlns="http://www.w3.org/2000/svg">
  <rect width="960" height="520" rx="22" fill="#080912"/>
  <rect x="1" y="1" width="958" height="518" rx="21" stroke="#9C52FF" stroke-opacity=".28"/>
  <path d="M0 52H960" stroke="#9CA4C4" stroke-opacity=".16"/>
  <path d="M694 52V478" stroke="#9CA4C4" stroke-opacity=".16"/>
  <rect x="24" y="20" width="28" height="28" rx="8" fill="url(#g0)"/>
  <text x="64" y="39" fill="#F3F0FF" font-family="Segoe UI, Arial" font-size="17" font-weight="700">AetherFlow</text>
  <text x="28" y="88" fill="#E5E0F5" font-family="Segoe UI, Arial" font-size="15" font-weight="700">Paste a video or playlist link</text>
  <rect x="28" y="102" width="544" height="42" rx="8" fill="#090B18" stroke="#9CA4C4" stroke-opacity=".22"/>
  <text x="46" y="129" fill="#B9B3CC" font-family="Segoe UI, Arial" font-size="14">https://www.youtube.com/watch?v=AetherFlow</text>
  <rect x="586" y="102" width="94" height="42" rx="8" fill="url(#g1)"/>
  <text x="613" y="129" fill="white" font-family="Segoe UI, Arial" font-size="14" font-weight="700">Check</text>
  <rect x="28" y="166" width="282" height="150" rx="10" fill="url(#thumb)" stroke="white" stroke-opacity=".12"/>
  <circle cx="58" cy="286" r="17" fill="black" fill-opacity=".55"/>
  <rect x="330" y="176" width="248" height="18" rx="4" fill="#F3F0FF"/>
  <rect x="330" y="204" width="154" height="11" rx="3" fill="#969BB3"/>
  <rect x="330" y="232" width="286" height="12" rx="3" fill="#C1C3D0" fill-opacity=".78"/>
  <rect x="330" y="251" width="210" height="12" rx="3" fill="#C1C3D0" fill-opacity=".78"/>
  <rect x="28" y="336" width="644" height="148" rx="9" fill="#101326" stroke="#9C52FF" stroke-opacity=".42"/>
  <rect x="40" y="348" width="120" height="38" rx="7" fill="#9C52FF" fill-opacity=".24" stroke="#AB67FF"/>
  <text x="74" y="372" fill="#F3F0FF" font-family="Segoe UI, Arial" font-size="13" font-weight="700">Video MP4</text>
  <rect x="174" y="348" width="120" height="38" rx="7" fill="white" fill-opacity=".04"/>
  <text x="214" y="372" fill="#969BB3" font-family="Segoe UI, Arial" font-size="13" font-weight="700">Audio</text>
  <rect x="42" y="412" width="468" height="40" rx="7" fill="#090B18" stroke="#9CA4C4" stroke-opacity=".2"/>
  <rect x="526" y="412" width="110" height="40" rx="7" fill="white" fill-opacity=".07" stroke="#9CA4C4" stroke-opacity=".18"/>
  <rect x="42" y="462" width="594" height="12" rx="6" fill="url(#g1)"/>
  <text x="712" y="88" fill="#E5E0F5" font-family="Segoe UI, Arial" font-size="15" font-weight="700">Playlists</text>
  <rect x="710" y="116" width="206" height="38" rx="8" fill="#9C52FF" fill-opacity=".13"/>
  <text x="740" y="140" fill="#E5E0F5" font-family="Segoe UI, Arial" font-size="13">Chill Mix</text>
  <text x="870" y="140" fill="#676D86" font-family="Segoe UI, Arial" font-size="11">24 videos</text>
  <text x="712" y="184" fill="#E5E0F5" font-family="Segoe UI, Arial" font-size="15" font-weight="700">Queue</text>
  <g opacity=".94">
    <rect x="712" y="214" width="34" height="34" rx="5" fill="url(#thumb)"/>
    <rect x="760" y="216" width="92" height="10" rx="3" fill="#F3F0FF"/>
    <rect x="760" y="234" width="154" height="5" rx="2.5" fill="#3C4058"/>
    <rect x="760" y="234" width="94" height="5" rx="2.5" fill="#A65CFF"/>
    <text x="878" y="226" fill="#969BB3" font-family="Segoe UI, Arial" font-size="11">62%</text>
  </g>
  <g opacity=".74">
    <rect x="712" y="270" width="34" height="34" rx="5" fill="url(#thumb)"/>
    <rect x="760" y="272" width="118" height="10" rx="3" fill="#F3F0FF"/>
    <rect x="760" y="290" width="154" height="5" rx="2.5" fill="#3C4058"/>
    <rect x="760" y="290" width="57" height="5" rx="2.5" fill="#A65CFF"/>
    <text x="878" y="282" fill="#969BB3" font-family="Segoe UI, Arial" font-size="11">37%</text>
  </g>
  <path d="M0 478H960" stroke="#9CA4C4" stroke-opacity=".16"/>
  <text x="28" y="502" fill="#969BB3" font-family="Segoe UI, Arial" font-size="12">Overall progress</text>
  <rect x="150" y="496" width="610" height="5" rx="2.5" fill="#3C4058"/>
  <rect x="150" y="496" width="378" height="5" rx="2.5" fill="#A65CFF"/>
  <text x="774" y="503" fill="#F3F0FF" font-family="Segoe UI, Arial" font-size="12" font-weight="700">62%</text>
  <defs>
    <linearGradient id="g0" x1="24" y1="20" x2="52" y2="48" gradientUnits="userSpaceOnUse">
      <stop stop-color="#B87AFF"/>
      <stop offset="1" stop-color="#6D22DC"/>
    </linearGradient>
    <linearGradient id="g1" x1="586" y1="102" x2="680" y2="144" gradientUnits="userSpaceOnUse">
      <stop stop-color="#A65CFF"/>
      <stop offset="1" stop-color="#6D22DC"/>
    </linearGradient>
    <linearGradient id="thumb" x1="28" y1="166" x2="310" y2="316" gradientUnits="userSpaceOnUse">
      <stop stop-color="#7A3341"/>
      <stop offset=".58" stop-color="#261228"/>
      <stop offset="1" stop-color="#F0A064"/>
    </linearGradient>
  </defs>
</svg>
